<svg id="Layer_1" data-name="Layer 1" xmlns="http://www.w3.org/2000/svg" viewBox="0 0 163.62 220.14"><defs><style>.cls-1{fill:#333;}</style></defs><title>vet-civie-logo</title><g id="oSr8Et.tif"><path class="cls-1" d="M470,315c1.83-2.58,3.64-5.17,5.49-7.73s3.78-4.85,3-8.87,3.32-7,5.36-10.33c1.69-2.78,5-5.13,1.29-9-1.14-1.17-.22-3.52.29-5.3a37.93,37.93,0,0,1,10.87-17.61q7-6.45,13.89-12.93c1-.92,2.43-2.37,3.37-1.28,3.89,4.48,7-.54,10.9-.19-6.84-5.28-5.25-18.68,2.09-22.67,3.21-1.75,4.49-1.47,4.47,2.74-.15,29.65-.08,59.3-.08,88.95,0,18-.57,36,.2,54,.52,12.06-5.84,20-14,26.43a18.22,18.22,0,0,0-5.92,7.83c-2.51,5.79-4.63,11.77-8.12,17.07a3.43,3.43,0,0,0,0,4.5c3.08,4.09,5.73,8.67,11.74,9,3.05.19,3.58,2.22,3.44,4.95-.16,3.13-2,3.16-4.37,3.19-11.48.17-21.59-5-32.27-8-1.16-.32-1.77-1.11-1.08-2.21,2.64-4.16,2.1-9.79,6.5-13.22,1.82-1.42,3.38-3.48,1.2-6.36-1.15-1.52-.58-3.89.42-5.74,5.12-9.43,6.87-20.6,14.8-28.6a2.68,2.68,0,0,0,0-4c-3.65-3.91-3.29-8.85-3-13.56.71-10.76-.92-20.88-6.92-30.07a16.62,16.62,0,0,1-1.67-3.6c-.93-2.66-.38-5.9-5.26-5.81-2.79.05-2.22-4.73-4.59-7.35-3.46,6.94-10.79,9.78-15.19,15.65l-1-1.06c1.46-1.69,1.75-3.3-.34-4.73C467.34,318.07,469.57,317.5,470,315Z" transform="translate(-455.32 -217.69)"/><path class="cls-1" d="M570,322.94c-1.62-.26-1.13-1.9-1.81-2.77.76-.49,1.26-1.05.53-1.95l-1.34,1.21c-5.27-.87-8.05-6-13.32-7.81,0,5.63.09,11.06,0,16.48-.1,4.52-.54,9-3.47,12.77-1.32,1.67-.56,3.11,0,4.64,5,12.54,7.32,25.82,11.05,38.69,2.31,8,8.95,13.89,14,20.47,2.72,3.53,7.2,6.13,5.61,11.79-.33,1.19,1.18,1.34,2.11,1.49,3.14.51,6.38,1.08,9.34-.36,2-1,3.64-.8,4.82.87,1.58,2.23-.88,2.82-2,3.68-5.81,4.51-11.57,9.24-19.78,7.63a4.12,4.12,0,0,0-1.87.43c-8.8,3-11.85,1.14-12.81-8.19a14.22,14.22,0,0,0-3.1-7.65,74.28,74.28,0,0,1-10.6-18c-3.25-8.22-6.79-16.23-12-23.43a9.19,9.19,0,0,1-1.47-5.66q.05-72.5,0-145c0-3.25,1-4.64,4.16-4.56,2.32.06,4.65.08,7,.25,3.08.23,5.32.62,4.1,5.07-.93,3.41,1.28,7.21,2.38,10.38,1.7,4.89-1,8.35-1.48,12.44a1.94,1.94,0,0,1-2.86,1.79c-4.68-1.61-4.72,2.42-4,4.35,4.32,11.08,4,23.32,8.79,34.24a3.55,3.55,0,0,1,.49,1.41c-.45,10.68,8.72,14,15.18,18.94a48.5,48.5,0,0,0,11.55,6.21c3.35,1.33,5,.67,7.36-1.2,11.81-9.42,8.93-9.65,19.79,1.46,3.26,3.34,6.52,6.68,9.68,10.11,4.07,4.42,3.82,7.58-.8,11.24-10.32,8.16-20.72,16.24-31,24.49-3.18,2.56-5.55,2.75-8.43-.55-4.59-5.28-9.57-10.22-14.37-15.3-3.71-3.92-3.57-7,.5-10.44a60.74,60.74,0,0,1,5.47-4.35,5.1,5.1,0,0,0,2.47-5.37c4.08,2.56,4.71-1.73,6.68-3.36C574.62,321,570.62,318.74,570,322.94Z" transform="translate(-455.32 -217.69)"/><path class="cls-1" d="M465.94,323.89l1,1.06c-2.52,3.63-5,7.31-7.59,10.87-.72,1-1.28,3.18-3.28,1.47-1.61-1.37-.08-2.41.66-3.26C459.7,330.59,462.84,327.26,465.94,323.89Z" transform="translate(-455.32 -217.69)"/><path class="cls-1" d="M470,315c-.44,2.48-2.66,3.05-4.41,4.13-1.23-.42-2.72-.79-2.42-2.46.21-1.19,1.57-.9,2.47-1.07C467.08,315.35,468.55,315.21,470,315Z" transform="translate(-455.32 -217.69)"/></g></svg>